<?xml version="1.0" encoding="UTF-8" standalone="no"?>
<svg
   xmlns:dc="http://purl.org/dc/elements/1.1/"
   xmlns:cc="http://creativecommons.org/ns#"
   xmlns:rdf="http://www.w3.org/1999/02/22-rdf-syntax-ns#"
   xmlns:svg="http://www.w3.org/2000/svg"
   xmlns="http://www.w3.org/2000/svg"
   xmlns:sodipodi="http://sodipodi.sourceforge.net/DTD/sodipodi-0.dtd"
   xmlns:inkscape="http://www.inkscape.org/namespaces/inkscape"
   version="1.0"
   width="60pt"
   height="64.345772pt"
   viewBox="0 0 60 64.345772"
   preserveAspectRatio="xMidYMid meet"
   id="svg14"
   sodipodi:docname="javapoint.svg"
   inkscape:version="0.92.0 unknown">
  <defs
     id="defs18" />
  <sodipodi:namedview
     pagecolor="#ffffff"
     bordercolor="#666666"
     borderopacity="1"
     objecttolerance="10"
     gridtolerance="10"
     guidetolerance="10"
     inkscape:pageopacity="0"
     inkscape:pageshadow="2"
     inkscape:window-width="1366"
     inkscape:window-height="715"
     id="namedview16"
     showgrid="false"
     fit-margin-top="0"
     fit-margin-left="0"
     fit-margin-right="0"
     fit-margin-bottom="0"
     inkscape:zoom="1"
     inkscape:cx="-55.976697"
     inkscape:cy="86.769792"
     inkscape:window-x="0"
     inkscape:window-y="0"
     inkscape:window-maximized="1"
     inkscape:current-layer="svg14" />
  <metadata
     id="metadata2">
Created by potrace 1.11, written by Peter Selinger 2001-2013
<rdf:RDF>
  <cc:Work
     rdf:about="">
    <dc:format>image/svg+xml</dc:format>
    <dc:type
       rdf:resource="http://purl.org/dc/dcmitype/StillImage" />
    <dc:title></dc:title>
  </cc:Work>
</rdf:RDF>
</metadata>
  <g
     id="g4515"
     transform="matrix(4.025724,0,0,4.025724,-2.300721,-0.01894002)">
    <g
       id="g4507">
      <path
         style="fill:#e31e24;fill-opacity:1;stroke:none;stroke-width:0.004908"
         inkscape:connector-curvature="0"
         id="path6"
         d="M 2.52762,3.523864 C 2.512896,3.538588 2.50308,4.642888 2.50308,5.982772 v 2.42946 l -0.117792,0.1227 C 2.277312,8.652724 2.238048,8.780332 2.252772,8.991376 2.262588,9.123892 2.493264,9.364384 2.65032,9.39874 2.733756,9.418372 2.87118,9.408556 2.959524,9.379108 3.283452,9.271132 3.406152,8.765608 3.16566,8.53984 L 3.04296,8.426956 V 5.96314 3.504232 H 2.79756 C 2.665044,3.499324 2.542344,3.50914 2.52762,3.523864 Z" />
      <g
         id="g4501"
         style="fill:#e31e24;fill-opacity:1">
        <path
           d="M 6.08592,0.691948 C 5.045424,1.064956 3.941124,1.457596 3.63192,1.57048 3.047868,1.776616 2.532528,1.958212 1.57056,2.30668 1.261356,2.419564 0.898164,2.542264 0.770556,2.586436 0.642948,2.630608 0.554604,2.684596 0.574236,2.704228 0.593868,2.72386 0.868716,2.826928 1.17792,2.934904 1.487124,3.04288 1.855224,3.170488 1.98774,3.224476 2.169336,3.293188 2.292036,3.307912 2.454,3.283372 2.5767,3.26374 2.905536,3.209752 3.1902,3.16558 3.474864,3.126316 3.759528,3.082144 3.82824,3.06742 3.896952,3.057604 4.063824,3.033064 4.19634,3.013432 4.333764,2.998708 4.485912,2.974168 4.5399,2.959444 4.593888,2.949628 4.726404,2.929996 4.83438,2.915272 4.942356,2.900548 5.084688,2.880916 5.1534,2.866192 5.506776,2.807296 6.18408,2.704228 6.3804,2.67478 6.5031,2.660056 6.72396,2.6257 6.8712,2.60116 7.01844,2.57662 7.21476,2.547172 7.308012,2.532448 7.420896,2.517724 7.519056,2.458828 7.592676,2.360668 7.793904,2.105452 8.152188,2.066188 8.377956,2.267416 8.657712,2.522632 8.633172,2.959444 8.328876,3.14104 8.127648,3.268648 7.931328,3.26374 7.720284,3.136132 7.55832,3.033064 7.543596,3.033064 7.077336,3.111592 6.817212,3.150856 6.512916,3.199936 6.40494,3.21466 5.948496,3.283372 3.406152,3.685828 3.371796,3.695644 3.352164,3.700552 3.759528,3.857608 4.279776,4.044112 5.192664,4.36804 5.781624,4.574176 7.273656,5.109148 7.661388,5.246572 8.00004,5.359456 8.02458,5.364364 c 0.029448,0 0.39264,-0.1227 0.80982,-0.274848 C 10.23318,4.5889 12.53994,3.769264 12.66264,3.73 12.73135,3.70546 13.060188,3.587668 13.39884,3.46006 13.737492,3.33736 14.046696,3.224476 14.08596,3.21466 14.12522,3.20484 14.28228,3.150856 14.42952,3.09196 14.57676,3.037972 14.866332,2.934904 15.06756,2.866192 15.268788,2.792572 15.450384,2.72386 15.474924,2.704228 15.494556,2.684596 15.11664,2.52754 14.640564,2.360668 14.15958,2.188888 13.536264,1.968028 13.2516,1.86496 12.966936,1.761892 12.07368,1.442872 11.26386,1.1533 10.45404,0.863728 9.39882,0.485812 8.917836,0.314032 8.436852,0.142252 8.029488,-8e-5 8.009856,0.004828 c -0.019632,0 -0.88344,0.309204 -1.923936,0.68712 z"
           id="path4"
           inkscape:connector-curvature="0"
           style="fill:#e31e24;fill-opacity:1;stroke:none;stroke-width:0.004908" />
        <path
           d="M 3.430692,4.328776 C 3.425784,4.338592 3.415968,5.050252 3.41106,5.91406 3.406152,7.052716 3.420876,7.523884 3.46014,7.636768 3.641736,8.088304 4.986528,8.726344 6.135,8.90794 c 0.1227,0.019632 0.255216,0.044172 0.29448,0.04908 0.176688,0.029448 0.628224,0.088344 0.83436,0.103068 0.31902,0.02454 1.42332,0.02454 1.57056,0 C 8.903112,9.045364 9.089616,9.025732 9.25158,9.011008 9.413544,8.996284 9.600048,8.971744 9.66876,8.95702 9.737472,8.947204 9.91416,8.90794 10.0614,8.8834 c 1.074852,-0.211044 2.287128,-0.790188 2.512896,-1.192644 0.04417,-0.078528 0.0638,-0.554604 0.0638,-1.74234 0.0049,-0.893256 -0.0049,-1.629456 -0.01963,-1.629456 -0.02454,0 -1.737432,0.603684 -3.195108,1.12884 -0.36319,0.132516 -0.82945,0.29448 -1.035586,0.3681 L 8.019672,5.943508 5.747268,5.133688 C 3.48468,4.323868 3.440508,4.309144 3.430692,4.328776 Z"
           id="path8"
           inkscape:connector-curvature="0"
           style="fill:#e31e24;fill-opacity:1;stroke:none;stroke-width:0.004908" />
      </g>
    </g>
    <path
       d="m 8.6141035,9.678496 c -0.04908,0.02454 -0.063804,0.58896 -0.063804,2.35584 l -0.00491,2.326392 -0.1227,0.215952 c -0.260122,0.471168 -0.73129,0.584052 -1.143562,0.26994 -0.127608,-0.09325 -0.240492,-0.17178 -0.260124,-0.17178 -0.058896,0 -0.603684,0.559512 -0.603684,0.618408 0,0.03436 0.112884,0.161964 0.250308,0.284664 0.66258,0.593868 1.879764,0.534972 2.473632,-0.1227 0.186504,-0.206136 0.382824,-0.584052 0.446628,-0.853992 0.04908,-0.211044 0.063804,-4.795116 0.019632,-4.88346 -0.029448,-0.053988 -0.14724,-0.07362 -0.485892,-0.07362 -0.2454,-0.00491 -0.476076,0.00982 -0.505524,0.034356 z"
       id="path10"
       inkscape:connector-curvature="0"
       style="fill:#ffffff;stroke:none;stroke-width:0.004908" />
  </g>
</svg>
