<?xml version="1.0" standalone="no"?>
<!DOCTYPE svg PUBLIC "-//W3C//DTD SVG 20010904//EN"
 "http://www.w3.org/TR/2001/REC-SVG-20010904/DTD/svg10.dtd">
<svg version="1.0" xmlns="http://www.w3.org/2000/svg"
 width="16.000000pt" height="16.000000pt" viewBox="0 0 16.000000 16.000000"
 preserveAspectRatio="xMidYMid meet">
<metadata>
Created by potrace 1.11, written by Peter Selinger 2001-2013
</metadata>
<g transform="translate(0.000000,16.000000) scale(0.004908,-0.004908)"
fill="#000000" stroke="none">
<path d="M1240 3119 c-212 -76 -437 -156 -500 -179 -119 -42 -224 -79 -420
-150 -63 -23 -137 -48 -163 -57 -26 -9 -44 -20 -40 -24 4 -4 60 -25 123 -47
63 -22 138 -48 165 -59 37 -14 62 -17 95 -12 25 4 92 15 150 24 58 8 116 17
130 20 14 2 48 7 75 11 28 3 59 8 70 11 11 2 38 6 60 9 22 3 51 7 65 10 72 12
210 33 250 39 25 3 70 10 100 15 30 5 70 11 89 14 23 3 43 15 58 35 41 52 114
60 160 19 57 -52 52 -141 -10 -178 -41 -26 -81 -25 -124 1 -33 21 -36 21 -131
5 -53 -8 -115 -18 -137 -21 -93 -14 -611 -96 -618 -98 -4 -1 79 -33 185 -71
186 -66 306 -108 610 -217 79 -28 148 -51 153 -52 6 0 80 25 165 56 285 102
755 269 780 277 14 5 81 29 150 55 69 25 132 48 140 50 8 2 40 13 70 25 30 11
89 32 130 46 41 15 78 29 83 33 4 4 -73 36 -170 70 -98 35 -225 80 -283 101
-58 21 -240 86 -405 145 -165 59 -380 136 -478 171 -98 35 -181 64 -185 63 -4
0 -180 -63 -392 -140z"/>
<path d="M515 2542 c-3 -3 -5 -228 -5 -501 l0 -495 -24 -25 c-22 -24 -30 -50
-27 -93 2 -27 49 -76 81 -83 17 -4 45 -2 63 4 66 22 91 125 42 171 l-25 23 0
502 0 501 -50 0 c-27 1 -52 -1 -55 -4z"/>
<path d="M699 2378 c-1 -2 -3 -147 -4 -323 -1 -232 2 -328 10 -351 37 -92 311
-222 545 -259 25 -4 52 -9 60 -10 36 -6 128 -18 170 -21 65 -5 290 -5 320 0
14 3 52 7 85 10 33 3 71 8 85 11 14 2 50 10 80 15 219 43 466 161 512 243 9
16 13 113 13 355 1 182 -1 332 -4 332 -5 0 -354 -123 -651 -230 -74 -27 -169
-60 -211 -75 l-75 -26 -463 165 c-461 165 -470 168 -472 164z"/>
<path d="M1518 1288 c-10 -5 -13 -120 -13 -480 l-1 -474 -25 -44 c-53 -96
-149 -119 -233 -55 -26 19 -49 35 -53 35 -12 0 -123 -114 -123 -126 0 -7 23
-33 51 -58 135 -121 383 -109 504 25 38 42 78 119 91 174 10 43 13 977 4 995
-6 11 -30 15 -99 15 -50 1 -97 -2 -103 -7z"/>
</g>
</svg>
